<svg xmlns="http://www.w3.org/2000/svg" xmlns:xlink="http://www.w3.org/1999/xlink" width="60.386" height="60.638" viewBox="0 0 60.386 60.638">
  <defs>
    <clipPath id="clip-path">
      <rect id="Rectángulo_209" data-name="Rectángulo 209" width="60.386" height="60.638" fill="#303030"/>
    </clipPath>
  </defs>
  <g id="Grupo_152" data-name="Grupo 152" transform="translate(0 0)">
    <g id="Grupo_151" data-name="Grupo 151" transform="translate(0 0)" clip-path="url(#clip-path)">
      <path id="Trazado_1792" data-name="Trazado 1792" d="M29.247,65.729c-.474-.118-.954-.215-1.421-.359a5.459,5.459,0,0,1-2.9-1.93A2.446,2.446,0,0,0,22.8,62.406q-9.631.017-19.262,0A3.3,3.3,0,0,1,.126,59.964,4.617,4.617,0,0,1,.006,58.8Q0,41.789,0,24.783a3.3,3.3,0,0,1,3.6-3.6H4.756c.035-.379.047-.727.1-1.067a2.777,2.777,0,0,1,2.258-2.35,33.474,33.474,0,0,1,22.373,2.972,1.335,1.335,0,0,0,1.4-.013,32.542,32.542,0,0,1,12.788-3.853,28.624,28.624,0,0,1,9.832.89,2.778,2.778,0,0,1,2.07,2.644c.013.233,0,.468,0,.779.534,0,1.02-.008,1.506,0a3.263,3.263,0,0,1,3.292,3.183c.01.176.01.354.01.531q0,16.888,0,33.776a3.773,3.773,0,0,1-.524,2.2,3.432,3.432,0,0,1-3.075,1.537c-6.3-.007-12.6.01-18.907-.016a2.882,2.882,0,0,0-2.544,1.171,5.8,5.8,0,0,1-3.75,2.04c-.151.029-.3.079-.448.118Zm2.13-8.688c.393-.177.693-.311.992-.447a31.585,31.585,0,0,1,15.491-2.93c1.548.107,3.088.34,4.627.547.5.068.706-.11.715-.584,0-.138,0-.276,0-.413V21.03c0-.118,0-.236,0-.354a.616.616,0,0,0-.559-.693,27.144,27.144,0,0,0-8.728-.738A31.162,31.162,0,0,0,31.9,22.838a.857.857,0,0,0-.538.9q.022,16.3.011,32.6v.709m-2.389-.183c.008-.168.019-.285.019-.4q0-16.42.008-32.84a.686.686,0,0,0-.444-.713A31.114,31.114,0,0,0,7.865,20.024a.723.723,0,0,0-.69.83q.015,16.3.009,32.6c0,.7.138.8.862.7,1.617-.217,3.231-.488,4.857-.619a28.088,28.088,0,0,1,12.852,1.889c1.071.43,2.113.933,3.234,1.431M4.806,23.584c-.162-.016-.238-.029-.314-.03-.374,0-.749-.013-1.122,0-.7.027-.988.371-.988,1.178q0,17.068,0,34.135c0,.039,0,.079,0,.118.029.71.347,1.023,1.07,1.049.157.006.315,0,.473,0,6.243,0,12.488.01,18.732-.007a4.556,4.556,0,0,1,3.87,1.645A4.161,4.161,0,0,0,29.6,63.318a4.22,4.22,0,0,0,3.928-1.295,5.143,5.143,0,0,1,4.314-2c6.224.027,12.449.01,18.672.01,1.275,0,1.491-.21,1.491-1.459q0-16.8,0-33.6a5.553,5.553,0,0,0-.015-.59.832.832,0,0,0-.794-.812c-.52-.046-1.048-.01-1.616-.01V51.788c0,.669.02,1.34-.006,2.008a2.794,2.794,0,0,1-3.4,2.751,32.068,32.068,0,0,0-11.278-.154A30.648,30.648,0,0,0,32.835,59a2.723,2.723,0,0,1-2.547.091.519.519,0,0,0-.381-.037,2.82,2.82,0,0,1-2.537-.29,26.042,26.042,0,0,0-12.035-2.949,39.225,39.225,0,0,0-7.273.736A2.663,2.663,0,0,1,5.4,55.5a3.183,3.183,0,0,1-.6-2.112q.007-14.5,0-29v-.805" transform="translate(0 -5.091)" fill="#303030"/>
      <path id="Trazado_1793" data-name="Trazado 1793" d="M4.852,0a3.272,3.272,0,0,1,.435.6c.294.77.525,1.567.855,2.32a1.744,1.744,0,0,0,.706.77c.632.354,1.326.6,1.971.93a.837.837,0,0,1,.427.542c.013.155-.229.4-.414.491-.667.334-1.374.59-2.032.94a1.512,1.512,0,0,0-.634.691C5.85,8.02,5.629,8.8,5.331,9.547a2.235,2.235,0,0,1-.458.54c-.172-.185-.413-.343-.5-.562-.283-.69-.529-1.4-.75-2.109a1.282,1.282,0,0,0-.826-.908A17.9,17.9,0,0,1,.915,5.66c-.2-.1-.442-.347-.443-.528s.247-.42.444-.522a18.188,18.188,0,0,1,1.876-.855,1.29,1.29,0,0,0,.828-.907c.234-.749.508-1.486.791-2.219A3.6,3.6,0,0,1,4.852,0" transform="translate(-0.143 0)" fill="#303030"/>
      <path id="Trazado_1794" data-name="Trazado 1794" d="M83.548,9.093a1.948,1.948,0,0,1-.243.365.762.762,0,0,1-.312.16A3.016,3.016,0,0,0,80.63,12.2c-.046.226-.286.413-.436.618-.144-.213-.371-.41-.418-.643A3.047,3.047,0,0,0,77.4,9.594a.729.729,0,0,1-.428-.46c-.025-.1.233-.364.4-.4A3.116,3.116,0,0,0,79.8,6.048c.042-.208.272-.378.416-.565.138.194.354.372.4.587A3.07,3.07,0,0,0,83.009,8.7c.192.044.348.247.539.389" transform="translate(-23.355 -1.664)" fill="#303030"/>
      <path id="Trazado_1795" data-name="Trazado 1795" d="M40.382,6.971A2.191,2.191,0,0,1,42.55,9.164a2.2,2.2,0,0,1-4.409-.013,2.194,2.194,0,0,1,2.241-2.18" transform="translate(-11.573 -2.115)" fill="#303030"/>
      <path id="Trazado_1796" data-name="Trazado 1796" d="M28.608,4.065a.915.915,0,1,1-.9.94.9.9,0,0,1,.9-.94" transform="translate(-8.406 -1.233)" fill="#303030"/>
      <path id="Trazado_1797" data-name="Trazado 1797" d="M62.2,42.368c.318.828.657,1.583.9,2.368a4.395,4.395,0,0,1-.605,4.044,3.458,3.458,0,0,1-5.087.713.64.64,0,0,0-.768-.128,5.309,5.309,0,0,1-4.566-.146,1.428,1.428,0,0,0-.821-.09c-.455.08-.9.215-1.272-.169-.357-.366-.214-.791-.132-1.222a1.3,1.3,0,0,0-.062-.766,5.52,5.52,0,0,1-.168-4.735.644.644,0,0,0-.061-.552c-1.871-2.174-.667-5.357,2.379-5.966a6.216,6.216,0,0,1,3.764.69c.286.125.568.258.878.4a3.831,3.831,0,0,1,3.261-2.054,1.286,1.286,0,0,0,1.441-1.047.66.66,0,0,1,.977-.459c.463.216.511.6.311,1.045-.129.285-.247.575-.157.678l1.563,1.573-.187.247c.32-.136.638-.279.963-.405a.678.678,0,0,1,.986.348.649.649,0,0,1-.433.946c-.866.221-1.078.721-1.1,1.589a3.774,3.774,0,0,1-2,3.1m-3.826-2.7a12.094,12.094,0,0,0-5.343-2.593,2.649,2.649,0,0,0-2.31.813,1.985,1.985,0,0,0-.341,2.483,2.67,2.67,0,0,0,2.646,1.335,12.184,12.184,0,0,0,5.349-2.037m.982,1.009A11.247,11.247,0,0,0,57.254,46.2a2.906,2.906,0,0,0,.8,1.971,2.075,2.075,0,0,0,3.272-.2,2.719,2.719,0,0,0,.549-2.111,11.936,11.936,0,0,0-2.517-5.186m2.212.344a2.486,2.486,0,0,0,1.236-2.681,2.682,2.682,0,0,0-2.366-2.2,2.466,2.466,0,0,0-2.484,1.268l3.614,3.615M51.563,47.458c.693.267,1.4.595,2.14.811a3.049,3.049,0,0,0,2.171-.146l-5.045-5.031a3.975,3.975,0,0,0,.3,3.339,10.309,10.309,0,0,1,.431,1.027m5.2-5.238-3.427.988,2.426,2.448c.325-1.113.665-2.281,1-3.436" transform="translate(-14.767 -10.062)" fill="#303030"/>
      <path id="Trazado_1798" data-name="Trazado 1798" d="M62.337,64.495c-.012.254.059.555-.054.75-.144.249-.434.566-.665.57a.883.883,0,0,1-.665-.545,4.487,4.487,0,0,1,0-1.631.9.9,0,0,1,.652-.577c.231,0,.545.313.674.566a2.246,2.246,0,0,1,.062.867" transform="translate(-18.471 -19.134)" fill="#303030"/>
      <path id="Trazado_1799" data-name="Trazado 1799" d="M69.967,60.425c0-.235-.01-.471,0-.706a.648.648,0,0,1,.655-.687.635.635,0,0,1,.735.6,9.547,9.547,0,0,1,0,1.584.7.7,0,0,1-1.393-.031c-.015-.254,0-.509,0-.764" transform="translate(-21.228 -17.911)" fill="#303030"/>
      <path id="Trazado_1800" data-name="Trazado 1800" d="M64.42,26.466a5.671,5.671,0,0,1-.008.822c-.059.4-.348.686-.728.591a1,1,0,0,1-.639-.616,6.347,6.347,0,0,1-.027-1.523.648.648,0,0,1,.679-.669.66.66,0,0,1,.719.63,5.812,5.812,0,0,1,.006.763h0" transform="translate(-19.111 -7.607)" fill="#303030"/>
      <path id="Trazado_1801" data-name="Trazado 1801" d="M28.194,39.226a7.146,7.146,0,0,1,1.068,8.889A6.909,6.909,0,0,1,23.376,51.5c-1.869.059-3.741.058-5.612.045a2.8,2.8,0,0,1-2.909-2.965q-.01-7.942,0-15.884a2.8,2.8,0,0,1,2.975-2.954,44.6,44.6,0,0,1,5.369.1,6.438,6.438,0,0,1,5.13,9.042c-.045.108-.086.217-.136.345M16.276,40.589c0,2.637,0,5.274,0,7.911a1.413,1.413,0,0,0,1.588,1.615c1.851,0,3.7.007,5.552-.052a5.713,5.713,0,0,0,3.679-9.88c-.658-.66-.683-.693-.252-1.5a5.024,5.024,0,0,0-3.753-7.421,44.222,44.222,0,0,0-5.071-.1c-1.252-.01-1.744.493-1.744,1.756q0,3.838,0,7.675" transform="translate(-4.506 -9.014)" fill="#303030"/>
      <path id="Trazado_1802" data-name="Trazado 1802" d="M20.814,49.387c0-.689-.011-1.378,0-2.066.013-.622.244-.868.857-.876,1.142-.014,2.285-.034,3.424.008a2.983,2.983,0,0,1-.049,5.965c-1.121.029-2.244.023-3.366.015-.616,0-.853-.243-.866-.862-.015-.727,0-1.455,0-2.183m1.472-1.48v3.077c1.007,0,1.969.037,2.928-.012A1.507,1.507,0,0,0,26.569,49.5a1.481,1.481,0,0,0-1.219-1.578c-1.009-.077-2.028-.02-3.064-.02" transform="translate(-6.314 -14.087)" fill="#303030"/>
      <path id="Trazado_1803" data-name="Trazado 1803" d="M20.815,38.056c0-.492-.011-.984,0-1.475.017-.612.262-.874.861-.885.846-.017,1.694-.034,2.538.007a2.381,2.381,0,0,1,2.33,2.411,2.356,2.356,0,0,1-2.361,2.309c-.846.028-1.692.006-2.538.009a.744.744,0,0,1-.831-.843c-.006-.511,0-1.023,0-1.534M22.279,39c.681,0,1.309.021,1.934-.006a.892.892,0,0,0,.9-.906.866.866,0,0,0-.809-.931c-.657-.053-1.322-.013-2.022-.013Z" transform="translate(-6.314 -10.825)" fill="#303030"/>
    </g>
  </g>
</svg>
