<svg xmlns="http://www.w3.org/2000/svg" xmlns:xlink="http://www.w3.org/1999/xlink" width="60" height="52.571" viewBox="0 0 60 52.571">
  <defs>
    <clipPath id="clip-path">
      <rect id="Rectángulo_210" data-name="Rectángulo 210" width="60" height="52.571" fill="#303030"/>
    </clipPath>
  </defs>
  <g id="Grupo_154" data-name="Grupo 154" transform="translate(0 0)">
    <g id="Grupo_153" data-name="Grupo 153" transform="translate(0 0)" clip-path="url(#clip-path)">
      <path id="Trazado_1804" data-name="Trazado 1804" d="M0,33.264a4.74,4.74,0,0,1,1.3-2.313,4.175,4.175,0,0,1,2.9-1.064q2.987,0,5.976,0h.708a5.644,5.644,0,0,1-.426-4.558,5.279,5.279,0,0,1,2.013-2.665,5.4,5.4,0,0,1,6.3.035c2.18,1.586,2.659,3.686,1.6,7.187h.582c1.816,0,3.633.022,5.449-.008A4.612,4.612,0,0,1,30,31.061a4.7,4.7,0,0,1,3.642-1.182c2.461.029,4.921.005,7.383.01,1.348,0,1.845.738,1.336,1.989-.206.5-.459.99-.691,1.484a3.068,3.068,0,1,0,5.5.028c-.265-.586-.541-1.17-.758-1.774a1.2,1.2,0,0,1,1.179-1.727c.117-.006.235,0,.352,0q3.837,0,7.675,0A4.038,4.038,0,0,1,60,34.256q0,4.044,0,8.087c0,1.29-.663,1.785-1.894,1.352-.806-.284-1.575-.673-2.362-1.01a3.067,3.067,0,1,0-2.112,5.747,3.25,3.25,0,0,0,2.333-.217,23.236,23.236,0,0,1,2.334-.925A1.192,1.192,0,0,1,60,48.554q.01,4.161,0,8.322a3.967,3.967,0,0,1-4.179,4.2q-9.111.014-18.222,0c-1.387,0-2.774-.028-4.159.008a4.386,4.386,0,0,1-3.429-1.155,4.906,4.906,0,0,1-3.815,1.157c-7.109-.022-14.218-.053-21.326.015C2.544,61.129.741,60.372,0,57.76Zm57.631,16.8c-2.858,1.436-5.385,1.2-7.432-1.273a5.151,5.151,0,0,1-.359-6.035c1.967-2.974,4.658-3.35,7.742-1.864a.805.805,0,0,0,.045-.159q.005-3.222.007-6.444c0-1.411-.584-2-1.981-2.009q-2.87-.007-5.74,0c-.184,0-.368.021-.564.033.881,3.212.318,5.342-1.779,6.856a5.41,5.41,0,0,1-6.206.078c-2.172-1.472-2.733-3.493-1.917-6.912a.616.616,0,0,0-.165-.047c-2.167,0-4.333-.023-6.5.008a1.561,1.561,0,0,0-1.6,1.663c-.02,1.21.021,2.422-.018,3.632a.969.969,0,0,0,.57,1A34.139,34.139,0,0,1,47.247,57.618l.369,1.088c2.842,0,5.632.013,8.423-.007a1.552,1.552,0,0,0,1.583-1.619c.028-2.3.009-4.606.009-7.019M28.586,58.032a6.38,6.38,0,0,0,.221-1.1c.03-1.073-.08-2.158.035-3.219a2.389,2.389,0,0,0-1.287-2.593,1.457,1.457,0,0,0-1.022-.258,5.347,5.347,0,0,1-5.527-2.7,1.2,1.2,0,0,0-.829-.633,21.741,21.741,0,0,0-7.542-.666,21.159,21.159,0,0,0-9.954,3.45.673.673,0,0,0-.305.435c-.022,1.71-.014,3.421-.014,5.264a17.215,17.215,0,0,1,13.5-4.861,17.712,17.712,0,0,1,12.726,6.88M2.363,42.376a.724.724,0,0,0,.192.018c.128-.045.255-.1.379-.15a28.653,28.653,0,0,1,19.285-1.409,1.309,1.309,0,0,0,.862-.1,5.438,5.438,0,0,1,5.116-.1c.184.088.374.166.621.275,0-.627-.031-1.174.01-1.715.033-.446-.15-.638-.545-.816a33.106,33.106,0,0,0-17.76-2.757,31.261,31.261,0,0,0-7.7,1.908c-.187.073-.434.318-.438.488-.035,1.443-.02,2.888-.02,4.353m24.7,16.337C20.994,50.591,8.654,50.6,2.622,57.939a1.782,1.782,0,0,0,1.712.779Q15.4,58.7,26.458,58.713h.608m1.753-21.644V34.458c0-1.655-.519-2.181-2.157-2.182-2.636,0-5.271.007-7.907,0-1.188,0-1.691-.705-1.288-1.81a20.474,20.474,0,0,1,.845-1.925,3.091,3.091,0,0,0,.254-2.162,3.068,3.068,0,1,0-5.78,1.989c.314.734.656,1.459.917,2.212a1.183,1.183,0,0,1-1.208,1.7c-.663.022-1.327.005-1.991.005-2.109,0-4.217-.007-6.326,0-1,.005-1.672.482-1.762,1.354-.083.8-.018,1.62-.018,2.522a34.555,34.555,0,0,1,26.419.913M46.125,58.712A33.284,33.284,0,0,0,31.179,39.883v1.383c0,.429.007.859,0,1.288a1.191,1.191,0,0,1-1.6,1.239c-.141-.033-.281-.07-.422-.105a1.875,1.875,0,0,0,.536.456,28.8,28.8,0,0,1,6.124,5.136,28.5,28.5,0,0,1,5.468,8.928c.076.2.3.478.455.482,1.421.038,2.844.022,4.387.022M2.364,48.8a23.326,23.326,0,0,1,17.931-2.729,5.85,5.85,0,0,1,1.158-3.939c-.132-.04-.2-.064-.27-.082a27.031,27.031,0,0,0-10.506-.555,26.346,26.346,0,0,0-7.907,2.4c-.164.08-.385.274-.388.419-.028,1.456-.017,2.913-.017,4.483m37.529,9.916a2.086,2.086,0,0,0-.063-.3A26.878,26.878,0,0,0,24.385,43.069a.8.8,0,0,0-.662.141,2.947,2.947,0,0,0-.864,3.289,1.371,1.371,0,0,0,.593.639c.7.382,1.47.646,2.142,1.068a1.455,1.455,0,0,0,1.528.043c.764-.341,1.535-.674,2.327-.936,1.053-.348,1.722.167,1.728,1.275.007,1.152-.008,2.3.012,3.455a1.027,1.027,0,0,0,.209.626A24.1,24.1,0,0,1,35.309,58.4a.6.6,0,0,0,.422.3c1.364.022,2.729.013,4.162.013m-8.516-4-.2.093c0,.6.041,1.2-.008,1.8-.122,1.477.805,2.435,2.735,1.988l-2.529-3.879" transform="translate(0 -8.536)" fill="#303030"/>
      <path id="Trazado_1805" data-name="Trazado 1805" d="M60.961,13.22a3.58,3.58,0,0,1-.618.542c-.627.312-1.262.615-1.916.862a1.266,1.266,0,0,0-.812.9c-.233.742-.5,1.475-.792,2.2-.075.186-.287.433-.441.437s-.379-.239-.452-.422c-.31-.777-.547-1.584-.871-2.353a1.5,1.5,0,0,0-.623-.691c-.65-.35-1.352-.6-2.009-.936-.191-.1-.422-.351-.418-.528s.242-.421.436-.519c.659-.334,1.359-.589,2.012-.933a1.4,1.4,0,0,0,.594-.645c.327-.79.572-1.614.889-2.409a.739.739,0,0,1,.469-.406c.111-.019.336.232.4.4.311.8.558,1.621.886,2.41a1.394,1.394,0,0,0,.6.641c.653.343,1.35.6,2.015.927a4.176,4.176,0,0,1,.652.523" transform="translate(-20.488 -3.275)" fill="#303030"/>
      <path id="Trazado_1806" data-name="Trazado 1806" d="M37.964,3.626a2.047,2.047,0,0,1-.3.347,1.573,1.573,0,0,1-.473.226,2.533,2.533,0,0,0-2.025,2.188.839.839,0,0,1-.119.328c-.141.207-.3.4-.459.6-.136-.2-.355-.379-.394-.593a3.086,3.086,0,0,0-2.411-2.651c-.168-.044-.428-.3-.4-.4a.719.719,0,0,1,.425-.458A3.014,3.014,0,0,0,34.169.6.8.8,0,0,1,34.292.27c.085-.113.21-.27.318-.27a.463.463,0,0,1,.319.267c.223.561.382,1.149.632,1.7a1.54,1.54,0,0,0,.6.637c.433.256.919.421,1.37.65a2.505,2.505,0,0,1,.436.378" transform="translate(-12.359 0)" fill="#303030"/>
      <path id="Trazado_1807" data-name="Trazado 1807" d="M77.238,2.344a2.207,2.207,0,1,1-2.214,2.193,2.226,2.226,0,0,1,2.214-2.193" transform="translate(-29.554 -0.924)" fill="#303030"/>
      <path id="Trazado_1808" data-name="Trazado 1808" d="M11.69,15.029a.914.914,0,0,1,.91-.932.9.9,0,0,1,.93.9.925.925,0,0,1-.9.946.947.947,0,0,1-.939-.918" transform="translate(-4.605 -5.554)" fill="#303030"/>
      <path id="Trazado_1809" data-name="Trazado 1809" d="M70.07,56.6a6.74,6.74,0,0,1,.006-.759.665.665,0,0,1,.7-.647.646.646,0,0,1,.692.65,13.643,13.643,0,0,1,0,1.518.639.639,0,0,1-.7.643.66.66,0,0,1-.7-.647,6.464,6.464,0,0,1,0-.759" transform="translate(-27.599 -21.743)" fill="#303030"/>
      <path id="Trazado_1810" data-name="Trazado 1810" d="M87.453,44.713a2.129,2.129,0,0,1,.061-.805c.121-.238.413-.549.62-.541a.9.9,0,0,1,.7.508,4.714,4.714,0,0,1,.006,1.678.885.885,0,0,1-.67.547c-.23,0-.527-.327-.655-.581a1.951,1.951,0,0,1-.023-.805h-.035" transform="translate(-34.447 -17.083)" fill="#303030"/>
      <path id="Trazado_1811" data-name="Trazado 1811" d="M75.755,63.019c0-.234-.012-.468,0-.7.025-.412.267-.713.661-.646.265.045.654.314.7.536a4.683,4.683,0,0,1,0,1.679.962.962,0,0,1-.693.549c-.373.051-.641-.239-.661-.658-.012-.253,0-.507,0-.76" transform="translate(-29.84 -24.291)" fill="#303030"/>
      <path id="Trazado_1812" data-name="Trazado 1812" d="M25.043,29a1.154,1.154,0,1,1-1.156-1.148A1.152,1.152,0,0,1,25.043,29" transform="translate(-8.956 -10.972)" fill="#303030"/>
    </g>
  </g>
</svg>
