<svg xmlns="http://www.w3.org/2000/svg" xmlns:xlink="http://www.w3.org/1999/xlink" width="218.327" height="166.211" viewBox="0 0 218.327 166.211">
  <defs>
    <clipPath id="clip-path">
      <rect id="Rect치ngulo_190" data-name="Rect치ngulo 190" width="178.149" height="114.447" fill="none"/>
    </clipPath>
    <clipPath id="clip-path-2">
      <rect id="Rect치ngulo_191" data-name="Rect치ngulo 191" width="15.502" height="18.062" transform="translate(0 0)" fill="none"/>
    </clipPath>
  </defs>
  <g id="tramo_1" data-name="tramo 1" transform="translate(-278.249 -1769.994)">
    <g id="Grupo_135" data-name="Grupo 135" transform="translate(326.483 1769.994) rotate(19)">
      <g id="Grupo_134" data-name="Grupo 134" transform="translate(0 0)" clip-path="url(#clip-path)">
        <path id="Trazado_1700" data-name="Trazado 1700" d="M3.03,2.167,2.79.693A.819.819,0,0,0,1.17.943L1.176.97l.279,1.48A.8.8,0,0,0,3.03,2.167" transform="translate(0.58 111.345)" fill="#494546"/>
        <path id="Trazado_1701" data-name="Trazado 1701" d="M2.539,7.691,2.2,4.734l0-.027a.914.914,0,1,0-1.816.205v.024l.417,3a.876.876,0,0,0,1.738-.217Z" transform="translate(0.19 99.916)" fill="#494546"/>
        <path id="Trazado_1702" data-name="Trazado 1702" d="M2.075,12.791,2.012,9.835V9.787A1.006,1.006,0,0,0,0,9.831v.024L.137,12.9a.971.971,0,0,0,1.94-.063Z" transform="translate(0 87.421)" fill="#494546"/>
        <path id="Trazado_1703" data-name="Trazado 1703" d="M2.139,17.907l.331-2.914.009-.07a1.051,1.051,0,1,0-2.089-.238V14.7l-.31,3.054a1.032,1.032,0,0,0,2.053.222Z" transform="translate(0.037 74.935)" fill="#494546"/>
        <path id="Trazado_1704" data-name="Trazado 1704" d="M2.97,22.92q.38-1.406.879-2.77A1.1,1.1,0,0,0,1.79,19.4l0,.012c-.343.975-.643,1.964-.9,2.962a1.078,1.078,0,0,0,2.084.55" transform="translate(0.425 62.724)" fill="#494546"/>
        <path id="Trazado_1705" data-name="Trazado 1705" d="M4.739,27.559q.684-1.275,1.486-2.485a1.141,1.141,0,1,0-1.9-1.261l-.006.012q-.843,1.3-1.562,2.684a1.123,1.123,0,0,0,1.985,1.05" transform="translate(1.312 51.351)" fill="#494546"/>
        <path id="Trazado_1706" data-name="Trazado 1706" d="M7.466,31.55q.951-1.1,1.988-2.125A1.185,1.185,0,1,0,7.787,27.74l-.01.01Q6.69,28.85,5.69,30.032A1.168,1.168,0,0,0,7.466,31.55" transform="translate(2.705 41.411)" fill="#494546"/>
        <path id="Trazado_1707" data-name="Trazado 1707" d="M10.957,34.84,13.3,33.09l.061-.046a1.231,1.231,0,0,0-1.474-1.972l-.01.009L9.431,32.953a1.213,1.213,0,0,0,1.464,1.934Z" transform="translate(4.474 33.093)" fill="#494546"/>
        <path id="Trazado_1708" data-name="Trazado 1708" d="M14.963,37.457l2.581-1.395.06-.031a1.276,1.276,0,1,0-1.213-2.245l-.013.007-2.683,1.492a1.257,1.257,0,0,0,1.207,2.2Z" transform="translate(6.517 26.372)" fill="#494546"/>
        <path id="Trazado_1709" data-name="Trazado 1709" d="M19.314,39.427l2.737-1.084.054-.022a1.281,1.281,0,0,0-.943-2.381l-2.845,1.125a1.282,1.282,0,1,0,.942,2.386h0Z" transform="translate(8.743 21.153)" fill="#494546"/>
        <path id="Trazado_1710" data-name="Trazado 1710" d="M23.886,40.829l2.842-.769.055-.015a1.277,1.277,0,0,0-.666-2.465l-2.954.8a1.278,1.278,0,0,0,.666,2.468h0Z" transform="translate(11.098 17.273)" fill="#494546"/>
        <path id="Trazado_1711" data-name="Trazado 1711" d="M28.615,41.668l2.911-.447.057-.007A1.273,1.273,0,0,0,31.2,38.7l-3.023.46a1.275,1.275,0,1,0,.382,2.521h0Z" transform="translate(13.532 14.752)" fill="#494546"/>
        <path id="Trazado_1712" data-name="Trazado 1712" d="M33.438,41.929l2.942-.115h.057a1.27,1.27,0,0,0-.1-2.537l-3.057.117a1.271,1.271,0,1,0,.1,2.54h0Z" transform="translate(16.014 13.623)" fill="#494546"/>
        <path id="Trazado_1713" data-name="Trazado 1713" d="M38.284,41.643l2.918.262.072.006a1.265,1.265,0,0,0,.228-2.521l-3.06-.277a1.267,1.267,0,0,0-.229,2.524h0Z" transform="translate(18.511 13.886)" fill="#494546"/>
        <path id="Trazado_1714" data-name="Trazado 1714" d="M43.057,40.649l2.834.7.082.021a1.261,1.261,0,0,0,.6-2.449l-3-.739a1.263,1.263,0,1,0-.6,2.452h0Z" transform="translate(20.987 15.852)" fill="#494546"/>
        <path id="Trazado_1715" data-name="Trazado 1715" d="M47.617,38.785c.9.361,1.78.759,2.642,1.192a1.256,1.256,0,0,0,1.129-2.243q-1.388-.7-2.825-1.284a1.259,1.259,0,1,0-.949,2.333Z" transform="translate(23.391 19.818)" fill="#494546"/>
        <path id="Trazado_1716" data-name="Trazado 1716" d="M51.782,35.9a28.089,28.089,0,0,1,2.282,1.747,1.246,1.246,0,0,0,1.616-1.9A30.987,30.987,0,0,0,53.2,33.841,1.25,1.25,0,0,0,51.779,35.9Z" transform="translate(25.595 26.095)" fill="#494546"/>
        <path id="Trazado_1717" data-name="Trazado 1717" d="M55.249,31.923a15.765,15.765,0,0,1,1.633,2.251,1.237,1.237,0,0,0,2.138-1.243,18.52,18.52,0,0,0-1.879-2.609,1.24,1.24,0,0,0-1.9,1.6Z" transform="translate(27.45 34.851)" fill="#494546"/>
        <path id="Trazado_1718" data-name="Trazado 1718" d="M57.289,26.357a3.872,3.872,0,0,1-.76,2.131,1.227,1.227,0,0,0,1.981,1.447l.009-.013a6.365,6.365,0,0,0,1.228-3.446v-.016a1.23,1.23,0,0,0-2.458-.1" transform="translate(28.121 46.254)" fill="#494546"/>
        <path id="Trazado_1719" data-name="Trazado 1719" d="M55.632,22.944a9.79,9.79,0,0,1-2.561.726,1.216,1.216,0,0,0,.342,2.408,12.252,12.252,0,0,0,3.2-.9,1.22,1.22,0,1,0-.976-2.236Z" transform="translate(25.988 54.108)" fill="#494546"/>
        <path id="Trazado_1720" data-name="Trazado 1720" d="M51.46,23.976a11.781,11.781,0,0,1-2.569-.886,1.206,1.206,0,0,0-1.05,2.171,14.176,14.176,0,0,0,3.093,1.078,1.21,1.21,0,1,0,.528-2.362Z" transform="translate(23.557 53.635)" fill="#494546"/>
        <path id="Trazado_1721" data-name="Trazado 1721" d="M47.427,28.115a13.359,13.359,0,0,1-1.694-2.165,1.2,1.2,0,0,0-2.026,1.272A15.7,15.7,0,0,0,45.7,29.782a1.2,1.2,0,0,0,1.73-1.664Z" transform="translate(21.74 46.223)" fill="#494546"/>
        <path id="Trazado_1722" data-name="Trazado 1722" d="M44.871,33.531a16.021,16.021,0,0,1-.528-2.735,1.226,1.226,0,0,0-2.438.252v.01a18.307,18.307,0,0,0,.633,3.149,1.214,1.214,0,0,0,2.332-.676" transform="translate(20.929 34.839)" fill="#494546"/>
        <path id="Trazado_1723" data-name="Trazado 1723" d="M44.431,39a17.2,17.2,0,0,1,.661-2.716,1.256,1.256,0,1,0-2.384-.789l0,.01a19.744,19.744,0,0,0-.733,3.117A1.244,1.244,0,0,0,44.431,39" transform="translate(20.958 22.466)" fill="#494546"/>
        <path id="Trazado_1724" data-name="Trazado 1724" d="M46.016,43.687a21.039,21.039,0,0,1,1.622-2.315,1.285,1.285,0,0,0-2-1.612l-.007.007a23.874,23.874,0,0,0-1.8,2.612,1.274,1.274,0,0,0,2.186,1.308" transform="translate(21.804 11.242)" fill="#494546"/>
        <path id="Trazado_1725" data-name="Trazado 1725" d="M49.007,47.176a23.514,23.514,0,0,1,2.273-1.7,1.316,1.316,0,0,0-1.449-2.2l-.009.006A26.187,26.187,0,0,0,47.311,45.2a1.3,1.3,0,0,0,1.7,1.979" transform="translate(23.406 2.395)" fill="#494546"/>
        <path id="Trazado_1726" data-name="Trazado 1726" d="M52.925,49.245a22.09,22.09,0,0,1,2.671-.933,1.345,1.345,0,1,0-.72-2.591l-.012,0a24.411,24.411,0,0,0-2.987,1.069,1.333,1.333,0,0,0,1.048,2.452" transform="translate(25.511 -3.389)" fill="#494546"/>
        <path id="Trazado_1727" data-name="Trazado 1727" d="M57.386,49.757a27.464,27.464,0,0,1,2.855-.133,1.374,1.374,0,0,0,.009-2.749h-.007a30.1,30.1,0,0,0-3.138.169,1.364,1.364,0,0,0,.282,2.713" transform="translate(27.916 -5.606)" fill="#494546"/>
        <path id="Trazado_1728" data-name="Trazado 1728" d="M62.044,49.115q1.422.211,2.827.549a1.4,1.4,0,0,0,.649-2.717h-.009q-1.518-.353-3.068-.576a1.387,1.387,0,0,0-.4,2.746" transform="translate(30.4 -4.766)" fill="#494546"/>
        <path id="Trazado_1729" data-name="Trazado 1729" d="M66.622,47.455,69.3,48.561l.1.039a1.417,1.417,0,0,0,1.081-2.62l-.008,0-2.878-1.17a1.408,1.408,0,0,0-1.068,2.606Z" transform="translate(32.794 -1.296)" fill="#494546"/>
        <path id="Trazado_1730" data-name="Trazado 1730" d="M70.9,44.931c.816.523,1.64,1.024,2.449,1.562l.028.019a1.44,1.44,0,1,0,1.6-2.395l-.006,0c-.861-.568-1.748-1.1-2.621-1.651a1.43,1.43,0,0,0-1.537,2.413Z" transform="translate(35.045 4.348)" fill="#494546"/>
        <path id="Trazado_1731" data-name="Trazado 1731" d="M74.817,41.743l2.245,1.9.045.037A1.462,1.462,0,0,0,79,41.449l-.007-.006-2.348-1.964A1.453,1.453,0,0,0,74.769,41.7Z" transform="translate(37.091 11.729)" fill="#494546"/>
        <path id="Trazado_1732" data-name="Trazado 1732" d="M78.452,38.246l2.119,2.086.018.018a1.484,1.484,0,1,0,2.083-2.116l-.006-.006-2.171-2.113a1.476,1.476,0,0,0-2.063,2.11Z" transform="translate(38.956 20.14)" fill="#494546"/>
        <path id="Trazado_1733" data-name="Trazado 1733" d="M81.953,34.693l2.114,2.138a1.489,1.489,0,0,0,2.119-2.092l-2.095-2.144a1.5,1.5,0,1,0-2.146,2.09Z" transform="translate(40.72 28.976)" fill="#494546"/>
        <path id="Trazado_1734" data-name="Trazado 1734" d="M85.526,31.2l2.215,2.08a1.454,1.454,0,0,0,2-2.11l-.028-.028L87.572,29.1l-.025-.025a1.469,1.469,0,0,0-2.03,2.123Z" transform="translate(42.489 37.787)" fill="#494546"/>
        <path id="Trazado_1735" data-name="Trazado 1735" d="M89.344,28.036l2.426,1.885a1.421,1.421,0,0,0,1.753-2.236l-.057-.046-2.3-1.819-.054-.042a1.434,1.434,0,0,0-1.78,2.249Z" transform="translate(44.351 46.037)" fill="#494546"/>
        <path id="Trazado_1736" data-name="Trazado 1736" d="M93.582,25.45l2.711,1.507a1.386,1.386,0,0,0,1.359-2.417l-.09-.049-2.522-1.432-.087-.049a1.4,1.4,0,0,0-1.381,2.435Z" transform="translate(46.385 53.086)" fill="#494546"/>
        <path id="Trazado_1737" data-name="Trazado 1737" d="M98.3,23.676q1.46.538,2.957.958a1.353,1.353,0,0,0,.744-2.6q-1.39-.4-2.746-.918a1.367,1.367,0,1,0-.967,2.557Z" transform="translate(48.653 58.233)" fill="#494546"/>
        <path id="Trazado_1738" data-name="Trazado 1738" d="M103.382,22.8c1.023.162,2.053.282,3.084.363a1.32,1.32,0,0,0,.216-2.63q-1.444-.124-2.873-.363a1.333,1.333,0,1,0-.439,2.629Z" transform="translate(51.078 61.06)" fill="#494546"/>
        <path id="Trazado_1739" data-name="Trazado 1739" d="M108.693,23.223a25.842,25.842,0,0,0,3.116-.508,1.279,1.279,0,0,0-.553-2.5,23.6,23.6,0,0,1-2.812.427,1.3,1.3,0,1,0,.235,2.581Z" transform="translate(53.58 60.945)" fill="#494546"/>
        <path id="Trazado_1740" data-name="Trazado 1740" d="M113.9,25.328a17.99,17.99,0,0,0,2.8-1.61,1.24,1.24,0,0,0-1.425-2.03,15.358,15.358,0,0,1-2.419,1.357,1.257,1.257,0,1,0,1.036,2.29Z" transform="translate(56.002 56.811)" fill="#494546"/>
        <path id="Trazado_1741" data-name="Trazado 1741" d="M118.225,29.149a11.848,11.848,0,0,0,1.467-2.992,1.2,1.2,0,0,0-2.281-.753,9.426,9.426,0,0,1-1.194,2.369,1.216,1.216,0,0,0,2,1.387Z" transform="translate(57.943 47.895)" fill="#494546"/>
        <path id="Trazado_1742" data-name="Trazado 1742" d="M119.8,33.323a13.8,13.8,0,0,0-.735-3.188,1.161,1.161,0,0,0-2.191.769,11.431,11.431,0,0,1,.583,2.653,1.177,1.177,0,0,0,2.344-.22Z" transform="translate(58.346 35.791)" fill="#494546"/>
        <path id="Trazado_1743" data-name="Trazado 1743" d="M118.122,36.683A18.268,18.268,0,0,0,116,34.288a1.122,1.122,0,0,0-1.55,1.621,15.866,15.866,0,0,1,1.832,2.116,1.137,1.137,0,0,0,1.844-1.332Z" transform="translate(56.999 24.995)" fill="#494546"/>
        <path id="Trazado_1744" data-name="Trazado 1744" d="M114.276,38.857a28.4,28.4,0,0,0-2.767-1.447,1.1,1.1,0,1,0-.918,2.008h0a25.894,25.894,0,0,1,2.555,1.327,1.1,1.1,0,0,0,1.128-1.889" transform="translate(54.919 17.599)" fill="#494546"/>
        <path id="Trazado_1745" data-name="Trazado 1745" d="M109.559,40.214l-2.924-.871A1.113,1.113,0,1,0,106,41.476h0l.043.013,2.83.835.052.015a1.109,1.109,0,0,0,.631-2.126" transform="translate(52.549 13.136)" fill="#494546"/>
        <path id="Trazado_1746" data-name="Trazado 1746" d="M104.611,40.851a15.64,15.64,0,0,0-3.221-.276,1.124,1.124,0,0,0,.069,2.246h0a13.181,13.181,0,0,1,2.753.234,1.12,1.12,0,0,0,.394-2.2" transform="translate(50.101 10.54)" fill="#494546"/>
        <path id="Trazado_1747" data-name="Trazado 1747" d="M98.335,38.361a7.6,7.6,0,0,0-1.72,3.065,1.132,1.132,0,0,0,2.15.709l0-.012,0-.018a5.488,5.488,0,0,1,1.156-2.147l.018-.018a1.129,1.129,0,1,0-1.6-1.589l-.01.01" transform="translate(48.231 14.527)" fill="#494546"/>
        <path id="Trazado_1748" data-name="Trazado 1748" d="M96.359,34.94a5.005,5.005,0,0,0,.721,1.8,3.105,3.105,0,0,0,1.888,1.318,1.139,1.139,0,0,0,.495-2.224.811.811,0,0,1-.5-.376,2.818,2.818,0,0,1-.376-.976v-.01a1.136,1.136,0,0,0-2.225.463Z" transform="translate(48.119 26.032)" fill="#494546"/>
        <path id="Trazado_1749" data-name="Trazado 1749" d="M101.891,37.277a5.418,5.418,0,0,0,2.96-2.27,1.143,1.143,0,1,0-1.955-1.186l-.007.012a3.16,3.16,0,0,1-1.727,1.281,1.142,1.142,0,1,0,.726,2.165Z" transform="translate(50.141 27.219)" fill="#494546"/>
        <path id="Trazado_1750" data-name="Trazado 1750" d="M104.5,40.115a11.306,11.306,0,0,0-2.17-2.525A1.148,1.148,0,1,0,100.8,39.3l0,0a9.053,9.053,0,0,1,1.736,2,1.146,1.146,0,0,0,1.964-1.182Z" transform="translate(50.157 16.665)" fill="#494546"/>
        <path id="Trazado_1751" data-name="Trazado 1751" d="M100.565,42.458l-1.243-.793c-.193-.129-.382-.259-.528-.375l-.565-.471a1.155,1.155,0,1,0-1.477,1.775l0,0,.008.007.589.487c.249.2.472.348.7.5l1.29.819a1.152,1.152,0,0,0,1.236-1.945Z" transform="translate(48.12 9.051)" fill="#494546"/>
        <path id="Trazado_1752" data-name="Trazado 1752" d="M96.616,45.481l-2.473-1.748a1.163,1.163,0,0,0-1.344,1.9l0,0,.02.013,2.432,1.712.024.017a1.16,1.16,0,0,0,1.338-1.9" transform="translate(46.109 1.602)" fill="#494546"/>
        <path id="Trazado_1753" data-name="Trazado 1753" d="M92.482,48.265l-2.464-1.691-.014-.009A1.172,1.172,0,0,0,88.68,48.5h0l2.491,1.7a1.168,1.168,0,1,0,1.317-1.93Z" transform="translate(44.041 -5.473)" fill="#494546"/>
        <path id="Trazado_1754" data-name="Trazado 1754" d="M88.419,51.368l-2.3-1.838-.045-.036A1.18,1.18,0,0,0,84.6,51.338h0l2.392,1.9A1.177,1.177,0,1,0,88.458,51.4Z" transform="translate(42.036 -12.879)" fill="#494546"/>
        <path id="Trazado_1755" data-name="Trazado 1755" d="M84.665,55.123c-.33-.354-.676-.7-.993-1.06l-.933-1.087-.049-.057a1.188,1.188,0,0,0-1.8,1.547v0l1.026,1.189c.343.39.708.751,1.06,1.128A1.185,1.185,0,1,0,84.7,55.164Z" transform="translate(40.26 -21.445)" fill="#494546"/>
        <path id="Trazado_1756" data-name="Trazado 1756" d="M81.608,59.778a26.288,26.288,0,0,1-1.278-2.572,1.2,1.2,0,0,0-2.2.948l0,0a29,29,0,0,0,1.4,2.8,1.194,1.194,0,0,0,2.077-1.179" transform="translate(38.978 -31.81)" fill="#494546"/>
        <path id="Trazado_1757" data-name="Trazado 1757" d="M79.593,64.976a20.485,20.485,0,0,1-.475-2.8,1.173,1.173,0,0,0-2.335.219,22.945,22.945,0,0,0,.5,3.122,1.187,1.187,0,0,0,2.314-.529Z" transform="translate(38.351 -43.643)" fill="#494546"/>
        <path id="Trazado_1758" data-name="Trazado 1758" d="M79.159,70.324a14.03,14.03,0,0,1,.679-2.687,1.134,1.134,0,0,0-2.128-.787,16.362,16.362,0,0,0-.823,3.117,1.15,1.15,0,1,0,2.27.369Z" transform="translate(38.398 -55.994)" fill="#494546"/>
        <path id="Trazado_1759" data-name="Trazado 1759" d="M80.853,74.59A13.242,13.242,0,0,1,82.8,72.621a1.1,1.1,0,0,0-1.386-1.7,15.478,15.478,0,0,0-2.288,2.275A1.112,1.112,0,1,0,80.846,74.6Z" transform="translate(39.396 -66.543)" fill="#494546"/>
        <path id="Trazado_1760" data-name="Trazado 1760" d="M84.38,76.69a19.466,19.466,0,0,1,2.681-.948,1.06,1.06,0,0,0-.553-2.047,21.629,21.629,0,0,0-2.984,1.023,1.075,1.075,0,0,0,.846,1.976Z" transform="translate(41.394 -72.789)" fill="#494546"/>
        <path id="Trazado_1761" data-name="Trazado 1761" d="M88.876,77.047c.961-.093,1.93-.136,2.9-.138a1.023,1.023,0,0,0,.007-2.047c-1.03-.008-2.065.028-3.1.118a1.038,1.038,0,0,0,.178,2.068Z" transform="translate(43.826 -74.862)" fill="#494546"/>
        <path id="Trazado_1762" data-name="Trazado 1762" d="M93.546,76.1a15.321,15.321,0,0,1,2.677.865.991.991,0,0,0,.769-1.826,17.21,17.21,0,0,0-3.023-1,1,1,0,0,0-.432,1.957Z" transform="translate(46.33 -73.746)" fill="#494546"/>
        <path id="Trazado_1763" data-name="Trazado 1763" d="M97.841,73.577l2.555,1.518.021.012a.959.959,0,0,0,.988-1.645l-2.59-1.574A.976.976,0,0,0,97.8,73.554l.009,0Z" transform="translate(48.618 -68.379)" fill="#494546"/>
        <path id="Trazado_1764" data-name="Trazado 1764" d="M102.085,70.877l2.6,1.546a.9.9,0,0,0,.936-1.543l-.021-.013L103.059,69.3l-.016-.01a.925.925,0,0,0-.97,1.576l.012.008" transform="translate(50.766 -61.806)" fill="#494546"/>
        <path id="Trazado_1765" data-name="Trazado 1765" d="M106.524,68.593l2.806,1.239a.845.845,0,0,0,.694-1.54l-.063-.029-2.668-1.227-.057-.025a.867.867,0,1,0-.724,1.576l.012.006" transform="translate(52.95 -55.821)" fill="#494546"/>
        <path id="Trazado_1766" data-name="Trazado 1766" d="M111.407,67.5l1.536.265a.8.8,0,0,0,.285-1.571l-.06-.012-1.416-.267L111.7,65.9a.81.81,0,1,0-.3,1.592l.012,0" transform="translate(55.312 -52.131)" fill="#494546"/>
      </g>
    </g>
    <g id="Grupo_140" data-name="Grupo 140" transform="translate(481.074 1835.038)">
      <g id="Grupo_137" data-name="Grupo 137" clip-path="url(#clip-path-2)">
        <path id="Trazado_1767" data-name="Trazado 1767" d="M15.375,12.948l-2.521-4.41Q13.966,7.279,15.08,6.02c.54-.61-.153-1.65-.908-1.177a17.531,17.531,0,0,1-2.667,1.336L8.893,1.609a.89.89,0,0,0-.384-.369c.01-.04.022-.078.032-.118.1-.391-.48-.669-.673-.284-.072.144-.129.294-.2.438a.908.908,0,0,0-.489,1.083A41.818,41.818,0,0,0,5.336,7.915c-1.577.31-3.158.574-4.7.874A.89.89,0,0,0,.425,10.4a33.586,33.586,0,0,0,3.944,1.554C4,13.706,3.684,15.47,3.441,17.246a.651.651,0,0,0,1.078.628,50.415,50.415,0,0,0,4.267-4.7c1.839.424,3.7.775,5.559,1.115a.924.924,0,0,0,1.03-1.339M10.549,8.235q.133.236.27.469Q9.786,9.911,8.753,11.12c-.05.058-.1.12-.148.179-.886-.207-1.766-.434-2.637-.69.089-.386.176-.772.27-1.157a37.468,37.468,0,0,0,4.311-1.217M11.565,10q.627,1.084,1.253,2.169-1.354-.249-2.7-.53L11.565,10M7.872,3.6,9.734,6.825c-.987.313-2,.573-3.015.8C7.091,6.278,7.488,4.94,7.872,3.6M3.917,9.937c.317-.063.635-.126.952-.191-.039.162-.079.324-.117.486-.281-.092-.557-.2-.835-.3m1.074,5.646c.178-1.084.382-2.164.6-3.24q.868.255,1.747.48c-.763.935-1.532,1.877-2.349,2.76" fill="#445dad"/>
        <path id="Trazado_1768" data-name="Trazado 1768" d="M10.9,5.235q-.29-.857-.648-1.686A18.244,18.244,0,0,0,8.423.267a.175.175,0,0,0-.3.177A28.383,28.383,0,0,1,9.746,3.763q.337.829.608,1.685a6.03,6.03,0,0,0,.62,1.668.157.157,0,0,0,.289-.078,4.174,4.174,0,0,0-.361-1.8" fill="#445dad"/>
        <path id="Trazado_1769" data-name="Trazado 1769" d="M8.207.012A2.41,2.41,0,0,0,6.98,1.6c-.313.93-.44,1.925-.683,2.875-.526,2.051-1.181,4.088-1.845,6.1A.3.3,0,0,0,5,10.8,23,23,0,0,0,7.039,5.29c.217-.934.4-1.877.545-2.825A4.462,4.462,0,0,1,8.336.179.107.107,0,0,0,8.207.012" fill="#445dad"/>
        <path id="Trazado_1770" data-name="Trazado 1770" d="M8.554,2.814A76.206,76.206,0,0,0,4.266,14.507a.232.232,0,0,0,.448.123c1.46-3.871,2.6-7.86,3.946-11.771.021-.062-.08-.106-.106-.045" fill="#445dad"/>
        <path id="Trazado_1771" data-name="Trazado 1771" d="M9.212,2.981a46.4,46.4,0,0,1-1.493,5.99c-.633,1.963-1.4,3.863-2.128,5.791-.059.155.188.255.265.112A35.851,35.851,0,0,0,9.436,3.043c.022-.145-.2-.211-.224-.062" fill="#445dad"/>
        <path id="Trazado_1772" data-name="Trazado 1772" d="M9.841,4.536a37.783,37.783,0,0,1-1.6,5.1c-.337.856-.706,1.7-1.091,2.537-.358.777-.822,1.525-1.114,2.328-.062.168.174.231.265.112a12.762,12.762,0,0,0,1.271-2.4c.362-.784.682-1.585.974-2.4a37.714,37.714,0,0,0,1.462-5.236c.022-.109-.142-.156-.168-.046" fill="#445dad"/>
      </g>
    </g>
    <g id="Grupo_141" data-name="Grupo 141" transform="translate(278.249 1879.038)">
      <g id="Grupo_137-2" data-name="Grupo 137" clip-path="url(#clip-path-2)">
        <path id="Trazado_1767-2" data-name="Trazado 1767" d="M15.375,12.948l-2.521-4.41Q13.966,7.279,15.08,6.02c.54-.61-.153-1.65-.908-1.177a17.531,17.531,0,0,1-2.667,1.336L8.893,1.609a.89.89,0,0,0-.384-.369c.01-.04.022-.078.032-.118.1-.391-.48-.669-.673-.284-.072.144-.129.294-.2.438a.908.908,0,0,0-.489,1.083A41.818,41.818,0,0,0,5.336,7.915c-1.577.31-3.158.574-4.7.874A.89.89,0,0,0,.425,10.4a33.586,33.586,0,0,0,3.944,1.554C4,13.706,3.684,15.47,3.441,17.246a.651.651,0,0,0,1.078.628,50.415,50.415,0,0,0,4.267-4.7c1.839.424,3.7.775,5.559,1.115a.924.924,0,0,0,1.03-1.339M10.549,8.235q.133.236.27.469Q9.786,9.911,8.753,11.12c-.05.058-.1.12-.148.179-.886-.207-1.766-.434-2.637-.69.089-.386.176-.772.27-1.157a37.468,37.468,0,0,0,4.311-1.217M11.565,10q.627,1.084,1.253,2.169-1.354-.249-2.7-.53L11.565,10M7.872,3.6,9.734,6.825c-.987.313-2,.573-3.015.8C7.091,6.278,7.488,4.94,7.872,3.6M3.917,9.937c.317-.063.635-.126.952-.191-.039.162-.079.324-.117.486-.281-.092-.557-.2-.835-.3m1.074,5.646c.178-1.084.382-2.164.6-3.24q.868.255,1.747.48c-.763.935-1.532,1.877-2.349,2.76" fill="#445dad"/>
        <path id="Trazado_1768-2" data-name="Trazado 1768" d="M10.9,5.235q-.29-.857-.648-1.686A18.244,18.244,0,0,0,8.423.267a.175.175,0,0,0-.3.177A28.383,28.383,0,0,1,9.746,3.763q.337.829.608,1.685a6.03,6.03,0,0,0,.62,1.668.157.157,0,0,0,.289-.078,4.174,4.174,0,0,0-.361-1.8" fill="#445dad"/>
        <path id="Trazado_1769-2" data-name="Trazado 1769" d="M8.207.012A2.41,2.41,0,0,0,6.98,1.6c-.313.93-.44,1.925-.683,2.875-.526,2.051-1.181,4.088-1.845,6.1A.3.3,0,0,0,5,10.8,23,23,0,0,0,7.039,5.29c.217-.934.4-1.877.545-2.825A4.462,4.462,0,0,1,8.336.179.107.107,0,0,0,8.207.012" fill="#445dad"/>
        <path id="Trazado_1770-2" data-name="Trazado 1770" d="M8.554,2.814A76.206,76.206,0,0,0,4.266,14.507a.232.232,0,0,0,.448.123c1.46-3.871,2.6-7.86,3.946-11.771.021-.062-.08-.106-.106-.045" fill="#445dad"/>
        <path id="Trazado_1771-2" data-name="Trazado 1771" d="M9.212,2.981a46.4,46.4,0,0,1-1.493,5.99c-.633,1.963-1.4,3.863-2.128,5.791-.059.155.188.255.265.112A35.851,35.851,0,0,0,9.436,3.043c.022-.145-.2-.211-.224-.062" fill="#445dad"/>
        <path id="Trazado_1772-2" data-name="Trazado 1772" d="M9.841,4.536a37.783,37.783,0,0,1-1.6,5.1c-.337.856-.706,1.7-1.091,2.537-.358.777-.822,1.525-1.114,2.328-.062.168.174.231.265.112a12.762,12.762,0,0,0,1.271-2.4c.362-.784.682-1.585.974-2.4a37.714,37.714,0,0,0,1.462-5.236c.022-.109-.142-.156-.168-.046" fill="#445dad"/>
      </g>
    </g>
  </g>
</svg>
