<svg id="Grupo_156" data-name="Grupo 156" xmlns="http://www.w3.org/2000/svg" xmlns:xlink="http://www.w3.org/1999/xlink" width="60" height="59.531" viewBox="0 0 60 59.531">
  <defs>
    <clipPath id="clip-path">
      <rect id="Rectángulo_211" data-name="Rectángulo 211" width="60" height="59.531" fill="#303030"/>
    </clipPath>
  </defs>
  <g id="Grupo_155" data-name="Grupo 155" transform="translate(0 0)" clip-path="url(#clip-path)">
    <path id="Trazado_1813" data-name="Trazado 1813" d="M0,39.091c.038-.108.082-.215.113-.325A4.113,4.113,0,0,1,4.26,35.559c4.1-.014,8.2,0,12.3,0h.726c0-.453.006-.855,0-1.257-.025-1.56-.178-3.129-.056-4.678a6.471,6.471,0,0,1,6.578-6.007c4.158.068,8.318.06,12.476,0a6.537,6.537,0,0,1,6.59,6.509c.036,1.579-.077,3.161-.12,4.742-.006.208,0,.417,0,.689H43.5c3.983,0,7.968.065,11.948-.023a4.284,4.284,0,0,1,4.544,4.581,9.439,9.439,0,0,1-.163,1.8,3.906,3.906,0,0,1-2.7,2.838.63.63,0,0,0-.521.735q.016,10.017.006,20.032a2.564,2.564,0,0,1-1.91,2.679,3.021,3.021,0,0,1-.751.088c-1,.009-1.992.014-2.987,0a2.555,2.555,0,0,1-2.7-2.732q-.008-9.9,0-19.8v-.739H42.294c0,.887-.021,1.761.022,2.631.008.148.275.324.459.415a5.519,5.519,0,0,1,3.378,5.36,5.377,5.377,0,0,1-2.84,4.745.666.666,0,0,0-.37.833q.458,2.83.85,5.671a3.2,3.2,0,0,1-3.011,3.6c-.838.035-1.679.031-2.518,0a3.089,3.089,0,0,1-3-2.7c-.236-2.035-.4-4.078-.577-6.119-.03-.336-.075-.536-.491-.534-2.831.016-5.662.009-8.494.012a2.116,2.116,0,0,0-.28.045q-.173,1.86-.345,3.719c-.084.914-.148,1.829-.252,2.74a3.167,3.167,0,0,1-3.074,2.836c-.78.026-1.562.025-2.342,0a3.14,3.14,0,0,1-3.133-3.526c.2-1.821.5-3.632.794-5.442a1.073,1.073,0,0,0-.56-1.3A5.316,5.316,0,0,1,13.9,52.972a5.418,5.418,0,0,1,3.371-4.881.7.7,0,0,0,.492-.827c-.05-.734-.014-1.475-.014-2.252H11.844c-.01.233-.031.476-.031.719q0,9.84,0,19.681A2.629,2.629,0,0,1,9.869,68.2a3.359,3.359,0,0,1-.811.086c-.9.01-1.8.006-2.694,0a2.636,2.636,0,0,1-2.94-2.921q0-3.28,0-6.56c0-4.413-.006-8.825.009-13.238,0-.447-.086-.672-.563-.822A3.963,3.963,0,0,1,.207,42.081C.146,41.9.07,41.728,0,41.551v-2.46m29.993-1.176H15.7q-5.682,0-11.363,0a1.792,1.792,0,0,0-1.86,1.221A4.133,4.133,0,0,0,2.36,40c-.155,1.774.585,2.636,2.567,2.631q25.157-.058,50.316-.023c.215,0,.43.007.645,0a1.733,1.733,0,0,0,1.651-1.332,5.161,5.161,0,0,0,.09-1.159c.008-1.536-.666-2.2-2.213-2.2H29.994M19.688,35.522H40.395a54.511,54.511,0,0,0,.042-5.8c-.227-2.413-1.93-3.732-4.359-3.733-4.059,0-8.119.055-12.178-.019A4.21,4.21,0,0,0,19.544,30.2c.009,1.754.092,3.509.144,5.325M30.032,56.559v0c3.534,0,7.068.022,10.6-.009a3.29,3.29,0,0,0-.009-6.576c-.526-.016-1.054-.006-1.581-.006q-9.665,0-19.33,0a3.294,3.294,0,1,0-.224,6.583c3.514.033,7.029.009,10.544.009M5.8,45v15.88c0,1.5.008,3.006-.005,4.509,0,.393.113.562.535.546.78-.028,1.561-.008,2.342-.008.764,0,.766,0,.766-.771V45Zm44.818,0v10.5c0,3.28.009,6.561-.009,9.842,0,.468.138.619.6.6a22.386,22.386,0,0,1,2.342,0c.583.036.712-.179.711-.73q-.026-9.784-.011-19.567V45ZM20.142,47.537H39.949V45.014H20.028c.039.861.076,1.676.114,2.523M37,58.959c.2,2.129.386,4.183.6,6.234a.8.8,0,0,0,.9.731c.643.006,1.286.01,1.929,0,.763-.011,1.09-.409.979-1.161-.141-.963-.274-1.927-.419-2.889s-.3-1.946-.453-2.914Zm-13.971-.024c-1.132,0-2.2-.008-3.267.012a.414.414,0,0,0-.294.267c-.294,1.908-.585,3.818-.84,5.731a.815.815,0,0,0,.891.975c.663.018,1.328.014,1.991,0a.881.881,0,0,0,.98-.926q.1-1.048.2-2.1c.114-1.3.224-2.6.343-3.964" transform="translate(0 -8.765)" fill="#303030"/>
    <path id="Trazado_1814" data-name="Trazado 1814" d="M27.9,10.025a3.478,3.478,0,0,1-.425-.6c-.3-.782-.537-1.587-.867-2.354a1.609,1.609,0,0,0-.669-.721c-.63-.343-1.315-.584-1.956-.91-.2-.1-.437-.341-.441-.521s.24-.419.433-.519a19.644,19.644,0,0,1,1.911-.871,1.237,1.237,0,0,0,.782-.861c.243-.759.511-1.512.809-2.251A.758.758,0,0,1,27.934,0c.106-.022.337.228.4.4.313.8.563,1.618.892,2.406a1.391,1.391,0,0,0,.59.643c.653.344,1.352.6,2.01.932.194.1.43.344.433.526s-.229.433-.42.532a19.8,19.8,0,0,1-1.914.864,1.235,1.235,0,0,0-.783.859c-.242.76-.514,1.51-.8,2.254a3.284,3.284,0,0,1-.45.609" transform="translate(-8.738 0)" fill="#303030"/>
    <path id="Trazado_1815" data-name="Trazado 1815" d="M10.261,29.022a2.039,2.039,0,0,1-.309-.255.668.668,0,0,1-.116-.265,3.265,3.265,0,0,0-2.574-2.864.5.5,0,0,1-.307-.366c-.005-.126.176-.263.282-.39a.213.213,0,0,1,.108-.042,3.135,3.135,0,0,0,2.451-2.689c.039-.2.274-.373.418-.558.131.176.34.336.379.531a3.146,3.146,0,0,0,2.437,2.706.625.625,0,0,1,.4.416c.008.138-.24.293-.376.439a.109.109,0,0,1-.053.023,3.044,3.044,0,0,0-2.4,2.658,2.706,2.706,0,0,1-.346.655" transform="translate(-2.581 -8.016)" fill="#303030"/>
    <path id="Trazado_1816" data-name="Trazado 1816" d="M82.167,23.931a2.19,2.19,0,1,1-.038,4.381,2.19,2.19,0,1,1,.038-4.381" transform="translate(-29.679 -8.883)" fill="#303030"/>
    <path id="Trazado_1817" data-name="Trazado 1817" d="M11.736,13.8a.949.949,0,0,1-.956.9.928.928,0,0,1,.053-1.854.958.958,0,0,1,.9.955" transform="translate(-3.668 -4.769)" fill="#303030"/>
    <path id="Trazado_1818" data-name="Trazado 1818" d="M43.521,32.935c-.35,0-.7.025-1.051-.005A1.151,1.151,0,0,1,41.4,31.878a1.08,1.08,0,0,1,.869-1.21,13.474,13.474,0,0,1,2.553,0,1.081,1.081,0,0,1,.876,1.206,1.148,1.148,0,0,1-1.066,1.057c-.367.032-.739.006-1.109.006" transform="translate(-15.366 -11.361)" fill="#303030"/>
    <path id="Trazado_1819" data-name="Trazado 1819" d="M36.532,32.933a1.193,1.193,0,0,1-1.3-1.189,1.337,1.337,0,0,1,2.661.055,1.207,1.207,0,0,1-1.359,1.134" transform="translate(-13.078 -11.345)" fill="#303030"/>
    <path id="Trazado_1820" data-name="Trazado 1820" d="M54.844,68.485c-.023.25.033.549-.087.736-.147.228-.46.519-.667.494a.951.951,0,0,1-.643-.58,4.273,4.273,0,0,1-.034-1.27.633.633,0,0,1,.654-.672.667.667,0,0,1,.742.653,4.6,4.6,0,0,1,.005.638l.03,0" transform="translate(-19.816 -24.942)" fill="#303030"/>
    <path id="Trazado_1821" data-name="Trazado 1821" d="M61.441,70.675c0,.213.077.473-.018.628-.152.247-.411.577-.638.587a.88.88,0,0,1-.689-.509,3.184,3.184,0,0,1,0-1.432.973.973,0,0,1,.683-.554c.373-.057.64.229.668.643.014.212,0,.426,0,.639h0" transform="translate(-22.278 -25.757)" fill="#303030"/>
  </g>
</svg>
