<svg xmlns="http://www.w3.org/2000/svg" xmlns:xlink="http://www.w3.org/1999/xlink" width="60" height="60.017" viewBox="0 0 60 60.017">
  <defs>
    <clipPath id="clip-path">
      <rect id="Rectángulo_212" data-name="Rectángulo 212" width="60" height="60.017" fill="#303030"/>
    </clipPath>
  </defs>
  <g id="Grupo_161" data-name="Grupo 161" transform="translate(0 0)">
    <g id="Grupo_158" data-name="Grupo 158" transform="translate(0 0)">
      <g id="Grupo_157" data-name="Grupo 157" clip-path="url(#clip-path)">
        <path id="Trazado_1822" data-name="Trazado 1822" d="M37.884,55.033l1-1.709c1.332.684,2.6,1.37,3.894,1.991a25.6,25.6,0,0,0,7.9,2.579,11.742,11.742,0,0,0,3.318-.028,4.529,4.529,0,0,0,4-4.558,17,17,0,0,0-1.106-6.727,45.69,45.69,0,0,0-4.14-8.621c-.048-.081-.116-.151-.222-.287-.089.209-.154.352-.211.5-3.377,8.548-9.616,13.635-18.625,15.3a22.411,22.411,0,0,1-8.125-.116,1.664,1.664,0,0,0-1.078.207,50.262,50.262,0,0,1-10.9,5.359,18.456,18.456,0,0,1-7.051,1.051,6.764,6.764,0,0,1-6.487-6.63,19.416,19.416,0,0,1,1.615-8.5c.881-2.17,1.923-4.275,2.93-6.49L6.4,39.39c-.467.9-.928,1.74-1.352,2.6a28.042,28.042,0,0,0-2.942,8.682,11.757,11.757,0,0,0-.025,3.079,4.6,4.6,0,0,0,4.69,4.23,16.249,16.249,0,0,0,5.9-.87,44.7,44.7,0,0,0,9.6-4.526C12.222,48.379,6.336,41.029,6.328,30.016S12.192,11.635,22.283,7.4c-.4-.237-.8-.477-1.2-.708A37.63,37.63,0,0,0,10.629,2.329a11.542,11.542,0,0,0-4.6-.214,4.582,4.582,0,0,0-4,4.442A15.524,15.524,0,0,0,3.26,13.745c.844,2.12,1.884,4.161,2.84,6.236.1.222.229.435.368.7l-1.635.934c-.069-.061-.147-.1-.183-.162A36.072,36.072,0,0,1,.242,10.164a11.657,11.657,0,0,1,.2-5.573A6.574,6.574,0,0,1,6.587.031a21.019,21.019,0,0,1,9.139,1.812,51.378,51.378,0,0,1,8.64,4.524,1.659,1.659,0,0,0,1.318.266A23.741,23.741,0,0,1,52.276,21.692c.068.186.145.368.273.691.594-1.051,1.146-1.983,1.653-2.937a30.89,30.89,0,0,0,3.572-9.5,13.618,13.618,0,0,0,.077-3.928,4.452,4.452,0,0,0-4.406-4.008,15.664,15.664,0,0,0-7.188,1.23c-2.314.91-4.56,1.99-6.932,3.037l-.9-1.595c.978-.51,1.909-1.023,2.864-1.489A28.063,28.063,0,0,1,50.758.116,13.713,13.713,0,0,1,54.57.229a6.465,6.465,0,0,1,5.4,6.406,21.351,21.351,0,0,1-1.91,9.308,51.389,51.389,0,0,1-4.434,8.41,1.657,1.657,0,0,0-.265,1.321,23.541,23.541,0,0,1,0,8.794,1.571,1.571,0,0,0,.2,1.023,49.126,49.126,0,0,1,5.456,11.194,18.517,18.517,0,0,1,.973,6.385,6.88,6.88,0,0,1-7.46,6.944A26.064,26.064,0,0,1,42,57.138c-1.376-.646-2.709-1.382-4.113-2.1m-19.759-25.8c.969-.587,1.823-1.117,2.689-1.628a1.967,1.967,0,0,1,2.592.306,8.894,8.894,0,0,1,1,1.016,2.772,2.772,0,0,0,2.61,1.093c2.661-.11,2.566-.069,3.949,2.143a1.5,1.5,0,0,0,1.522.826,1.963,1.963,0,0,1,2.061,2.622c-.133.561-.313,1.113-.419,1.679A2.267,2.267,0,0,1,32.4,39.175c-1.389.423-1.4.45-1.392,1.887a2.1,2.1,0,0,1-1.283,2.068c-.687.328-1.35.712-2.05,1.011a.9.9,0,0,0-.647,1.016c.055.76.028,1.526.008,2.289a1.9,1.9,0,0,1-1.089,1.743c-1.137.579-3.494-.2-3.9-1.4-.956-2.851-2.349-5.618-1.943-8.774a.216.216,0,0,0,0-.122c-.1-.175-.173-.448-.324-.5a8.824,8.824,0,0,1-2.932-2.325,2.237,2.237,0,0,1-.707-1.717c.018-.986,0-1.972,0-2.791-2.77-1.494-5.928-2.148-7.5-5.224a1.115,1.115,0,0,0-.173.422,19.484,19.484,0,0,0-.017,6.286c1.568,9.019,6.737,14.944,15.393,17.865a1.436,1.436,0,0,0,1.417-.232A98.312,98.312,0,0,0,39.934,38.263C41,37.171,42.027,36.049,43.1,34.916a6.744,6.744,0,0,0-.43-.582A2.992,2.992,0,0,1,41.885,32c.045-.719.014-1.443.005-2.165a.958.958,0,0,0-.088-.467,1.663,1.663,0,0,0-2.27-.841,3.8,3.8,0,0,1-2.218.357c-.973-.266-1.959-.485-2.939-.727a1.964,1.964,0,0,1-1.529-1.531c-.235-.94-.478-1.876-.7-2.819a2.121,2.121,0,0,1,.315-1.77c.459-.66.9-1.334,1.345-2a2,2,0,0,1,1.774-.942H37.1l.078-.157-5.81-5.117a2.818,2.818,0,0,1-2.345,1.586,13.486,13.486,0,0,0-1.852.481,2.012,2.012,0,0,0-.877.58c-.737.915-1.413,1.878-2.128,2.811a2.291,2.291,0,0,1-.69.693c-1.962.981-3.815,2.233-6.082,2.473a10.178,10.178,0,0,0-1.574.315c-.238.063-.644.264-.633.367.056.532-.347,1.166.282,1.59.582.391,1.166.779,1.745,1.173a1.991,1.991,0,0,1,.907,1.73c0,.494,0,.988,0,1.61M29.908,12.786A3.919,3.919,0,0,0,27.28,11.4a2.776,2.776,0,0,1-2.751-1.908c-.165-.44-.432-.483-.867-.34A21.816,21.816,0,0,0,9.451,22.757a1.772,1.772,0,0,0,.287,1.829A10.407,10.407,0,0,0,14.9,28.772c.406.153.785.381,1.21.59.1-1.754.1-1.754-1.247-2.661-.274-.184-.551-.363-.819-.555a1.983,1.983,0,0,1-.873-1.686c0-.33,0-.66,0-.989,0-1.746.473-2.345,2.176-2.638a17.513,17.513,0,0,0,6.009-1.945,5.078,5.078,0,0,0,1.8-1.523c.527-.787,1.137-1.517,1.69-2.288a2.541,2.541,0,0,1,1.6-1.068c.805-.171,1.608-.366,2.393-.613a5.877,5.877,0,0,0,1.067-.611M21.927,29.246c-.586.355-1.155.682-1.708,1.036-.7.45-1.666.777-2.008,1.426a5.6,5.6,0,0,0-.076,2.5.871.871,0,0,0,.215.534,7.271,7.271,0,0,0,2.5,1.962,1.879,1.879,0,0,1,1.227,2.022,12.811,12.811,0,0,0,1,6.023c.212.512.356,1.052.532,1.579.26.777.534.966,1.443.98,0-.906,0-1.812,0-2.718a2.01,2.01,0,0,1,1.192-1.934,8.507,8.507,0,0,1,1.274-.624,1.9,1.9,0,0,0,1.532-2.34,1.822,1.822,0,0,1,1.39-1.957c.425-.156.865-.269,1.284-.44a.756.756,0,0,0,.424-.366c.193-.625.329-1.269.5-1.978-.41,0-.756,0-1.1,0a1.985,1.985,0,0,1-1.684-.873c-.5-.7-.855-1.679-1.532-2.011a6.123,6.123,0,0,0-2.621-.08,2.318,2.318,0,0,1-1.819-.756c-.642-.666-1.305-1.312-1.971-1.98M27.554,51.6c7.9.711,14.385-1.982,19.611-8.135-.489-.439-.941-.858-1.408-1.26a2.469,2.469,0,0,1-.9-2.132c.041-.719-.024-1.445.019-2.164a1.517,1.517,0,0,0-.613-1.36A108.236,108.236,0,0,1,27.554,51.6M47.221,30c-.586-.726-1.1-1.4-1.652-2.037-1.412-1.615-2.8-3.252-4.286-4.8a20.409,20.409,0,0,0-2.454-1.948.81.81,0,0,0-.459-.135c-.845-.013-1.692-.021-2.537.005a.736.736,0,0,0-.5.25c-1.355,1.73-1.351,1.734-.817,3.833a.552.552,0,0,1,.036.117c.009.785.495.992,1.18,1.2a5.657,5.657,0,0,0,4.127-.12,1.782,1.782,0,0,1,1.311-.058A5.142,5.142,0,0,1,43.8,28.959a1.746,1.746,0,0,1,.074.669c.008.784.034,1.57-.006,2.351a1.493,1.493,0,0,0,.61,1.359L47.221,30m-9.1-12.911a.6.6,0,0,0,.08.155c1.186,1.175,2.366,2.357,3.571,3.513a1.779,1.779,0,0,0,.8.425c1.184.269,2.378.5,3.57.733a1.044,1.044,0,0,0,.6.027c.937-.495,1.853-1.031,2.857-1.6l-2.012-3.269a2.574,2.574,0,0,1-3.54.256,15.561,15.561,0,0,0-1.88-.934,1.418,1.418,0,0,0-.819-.095c-1.077.235-2.144.518-3.231.788M48.2,41.945a25.257,25.257,0,0,0,2.5-5.061,2.368,2.368,0,0,0-.375-2.693c-.681-.781-1.227-1.678-1.864-2.568-.976,1.18-1.887,2.281-2.8,3.381a5.915,5.915,0,0,0,.366.5,3.083,3.083,0,0,1,.826,2.434c-.051.717-.022,1.442,0,2.162a.964.964,0,0,0,.181.551c.35.428.739.825,1.168,1.294M34.184,13.654c.541-.854,1.062-1.686,1.594-2.511a2.009,2.009,0,0,1,1.827-.958c.389.005.778,0,1.167,0-3-1.608-9.262-2.519-11.219-1.732a5.358,5.358,0,0,0,3.09,1.519,1.612,1.612,0,0,1,1.539,1.4,1.984,1.984,0,0,0,.9,1.374c.386.308.762.629,1.1.909m2.245.282c.372.247.8.5,1.188.8a1.1,1.1,0,0,0,1.085.184c.767-.233,1.557-.387,2.333-.592a2.456,2.456,0,0,1,1.853.2c.8.422,1.625.8,2.424,1.226.405.216.719.225,1.057-.324-1.242-1.056-2.492-2.124-3.751-3.181a.737.737,0,0,0-.437-.18,21.441,21.441,0,0,1-2.889.072,2.3,2.3,0,0,0-2.862,1.8M48.479,28.363c.861-1.225,1.69-2.4,2.5-3.58a.541.541,0,0,0,.063-.405c-.2-.7-.428-1.4-.671-2.181-.976.551-1.865,1.059-2.76,1.556-1.015.561-2.028-.075-3.1-.079l3.969,4.69m3.22-.807-.158-.037c-.56.757-1.126,1.508-1.673,2.274a.412.412,0,0,0-.019.377c.555.779,1.132,1.541,1.7,2.309l.147-.039Z" transform="translate(0 0)" fill="#303030"/>
      </g>
    </g>
    <g id="Grupo_160" data-name="Grupo 160" transform="translate(0 0)">
      <g id="Grupo_159" data-name="Grupo 159" clip-path="url(#clip-path)">
        <path id="Trazado_1823" data-name="Trazado 1823" d="M10.469,6.809a3.035,3.035,0,0,1,.4.553c.273.714.487,1.453.793,2.152a1.621,1.621,0,0,0,.655.715c.587.328,1.23.552,1.828.863a.777.777,0,0,1,.4.5c.013.143-.213.37-.384.456-.619.31-1.275.547-1.885.872a1.4,1.4,0,0,0-.588.641c-.293.686-.5,1.408-.774,2.1a2.073,2.073,0,0,1-.425.5c-.16-.172-.383-.318-.467-.521-.262-.64-.491-1.295-.7-1.956a1.189,1.189,0,0,0-.766-.843,16.536,16.536,0,0,1-1.743-.786c-.184-.094-.41-.322-.412-.49s.229-.39.412-.484a16.871,16.871,0,0,1,1.74-.793,1.2,1.2,0,0,0,.768-.841c.217-.695.471-1.379.733-2.059a3.339,3.339,0,0,1,.409-.583" transform="translate(-2.267 -2.41)" fill="#303030"/>
        <path id="Trazado_1824" data-name="Trazado 1824" d="M84.146,79.717a2.032,2.032,0,0,1,2.011,2.034,2.045,2.045,0,0,1-4.09-.012,2.035,2.035,0,0,1,2.079-2.022" transform="translate(-29.041 -28.21)" fill="#303030"/>
        <path id="Trazado_1825" data-name="Trazado 1825" d="M72.468,76.81a.849.849,0,1,1-.839.872.836.836,0,0,1,.839-.872" transform="translate(-25.347 -27.181)" fill="#303030"/>
      </g>
    </g>
  </g>
</svg>
